<svg width="135" height="64" viewBox="0 0 135 64" fill="none" xmlns="http://www.w3.org/2000/svg">
<mask id="mask0_7536_18697" style="mask-type:luminance" maskUnits="userSpaceOnUse" x="2" y="2" width="131" height="60">
<path d="M132.602 2.88867H2.60156V61.3887H132.602V2.88867Z" fill="white"/>
</mask>
<g mask="url(#mask0_7536_18697)">
<mask id="mask1_7536_18697" style="mask-type:luminance" maskUnits="userSpaceOnUse" x="2" y="2" width="131" height="60">
<path d="M132.602 2.88867H2.60156V61.3887H132.602V2.88867Z" fill="white"/>
</mask>
<g mask="url(#mask1_7536_18697)">
<mask id="mask2_7536_18697" style="mask-type:luminance" maskUnits="userSpaceOnUse" x="2" y="2" width="131" height="60">
<path d="M132.602 2.88867H2.60156V61.3887H132.602V2.88867Z" fill="white"/>
</mask>
<g mask="url(#mask2_7536_18697)">
<path opacity="0.3" d="M29.8676 15.1465C28.4678 15.1465 27.1254 15.6696 26.1356 16.6008C25.1459 17.5319 24.5898 18.7948 24.5898 20.1116C24.5898 25.0767 29.8676 30.1001 29.8676 30.1001C29.8676 30.1001 35.1454 25.0767 35.1454 20.1116C35.1454 18.7948 34.5893 17.5319 33.5995 16.6008C32.6097 15.6696 31.2674 15.1465 29.8676 15.1465ZM29.8676 23.0906C29.0278 23.0906 28.2223 22.7768 27.6284 22.2181C27.0346 21.6594 26.7009 20.9017 26.7009 20.1116C26.7009 19.3215 27.0346 18.5638 27.6284 18.0051C28.2223 17.4464 29.0278 17.1325 29.8676 17.1325C30.7075 17.1325 31.5129 17.4464 32.1067 18.0051C32.7006 18.5638 33.0343 19.3215 33.0343 20.1116C33.0343 20.9017 32.7006 21.6594 32.1067 22.2181C31.5129 22.7768 30.7075 23.0906 29.8676 23.0906Z" fill="#FFBD91"/>
<path d="M24.3906 43.5586H34.6447L29.774 52.9154L24.3906 43.5586Z" fill="#424242"/>
<path d="M23.7479 41.6011C23.7479 41.6011 23.6787 41.5703 22.9253 41.6011C21.4925 41.6602 20.0547 41.6191 18.4218 41.6191C18.9876 42.6627 19.4791 43.5777 19.9782 44.4876C21.9544 48.0887 23.9035 51.7053 25.9317 55.2755C26.3566 56.0234 26.3146 56.5401 25.8897 57.2264C25.1832 58.3702 24.5705 59.5732 23.8443 60.8891C16.742 47.9731 9.72855 35.2266 2.60156 22.2668C4.24188 22.2668 5.69939 22.2128 7.14949 22.3105C7.46817 22.331 7.83378 22.8477 8.04376 23.2178C10.3931 27.3844 12.7399 31.5509 15.0275 35.756C15.5192 36.6582 16.0898 37.0182 17.0729 36.9616C18.4169 36.8844 19.7681 36.941 21.3937 36.941L23.7479 41.6011Z" fill="#424242"/>
<path d="M44.5507 21.9246C44.3431 23.4792 43.9084 25.0848 43.2141 26.717C41.0231 31.8675 38.1194 37.3463 35.7846 41.5079C34.6136 43.5953 33.578 45.3657 32.8339 46.6151C32.4618 47.2398 32.1624 47.7357 31.9552 48.076C31.8518 48.2458 31.7709 48.3772 31.7158 48.4668C31.6884 48.5113 31.6668 48.5459 31.6523 48.5693C31.6452 48.5808 31.6399 48.5902 31.636 48.5965C31.6342 48.5993 31.6325 48.602 31.6314 48.6037L31.6296 48.6056L29.5249 47.3016L31.6287 48.6065C31.1771 49.3343 30.3814 49.777 29.5249 49.7771C28.7219 49.777 27.9726 49.3881 27.51 48.7397L27.4212 48.6065L27.4202 48.6056L27.4193 48.6037C27.4193 48.6037 27.4166 48.5994 27.4148 48.5965C27.411 48.5902 27.4056 48.5808 27.3985 48.5693C27.384 48.5459 27.3624 48.5114 27.335 48.4668C27.2799 48.3773 27.199 48.2458 27.0956 48.076C26.8884 47.7357 26.589 47.2399 26.2169 46.6151C25.4727 45.3656 24.4364 43.5955 23.2653 41.5079C20.9304 37.3463 18.0276 31.8675 15.8367 26.717C15.1423 25.0847 14.7077 23.4792 14.5 21.9246H19.5211C19.6936 22.8499 19.979 23.8042 20.3934 24.7782C22.4811 29.686 25.2839 34.9844 27.5843 39.0849C28.2939 40.3496 28.9535 41.495 29.5249 42.4737C30.0964 41.4949 30.7569 40.3497 31.4664 39.0849C33.7669 34.9844 36.5697 29.6859 38.6574 24.7782C39.0718 23.8042 39.3572 22.8499 39.5297 21.9246H44.5507ZM29.5249 4.5918C36.7798 4.59188 43.1195 9.77724 44.4419 16.9725H39.3539C38.1233 12.5363 34.048 9.54305 29.5249 9.54297C25.0019 9.54308 20.9263 12.5363 19.696 16.9725H14.6079C15.9301 9.77722 22.2701 4.59192 29.5249 4.5918Z" fill="#424242"/>
<path d="M25.7539 42.6367H36.008L31.1373 51.9936L25.7539 42.6367Z" fill="url(#paint0_linear_7536_18697)"/>
<path d="M25.1112 40.6792C25.1112 40.6792 25.042 40.6483 24.2886 40.6792C22.8557 40.7383 21.418 40.6972 19.7851 40.6972C20.3508 41.7408 20.8424 42.6558 21.3414 43.5657C23.3177 47.1668 25.2668 50.7833 27.2949 54.3536C27.7198 55.1015 27.6779 55.6182 27.253 56.3045C26.5464 57.4483 25.9338 58.6513 25.2075 59.9672C18.1052 47.0512 11.0919 34.3047 3.96484 21.3449C5.60516 21.3449 7.06268 21.291 8.51278 21.3885C8.83145 21.4092 9.19706 21.9258 9.40704 22.2959C11.7564 26.4625 14.1033 30.629 16.3908 34.8342C16.8824 35.7364 17.4531 36.0963 18.4363 36.0397C19.7801 35.9626 21.1314 36.0191 22.7569 36.0191L25.1112 40.6792Z" fill="url(#paint1_linear_7536_18697)"/>
<path d="M45.9179 21.0027C45.7103 22.5573 45.2756 24.1628 44.5813 25.7951C42.3902 30.9456 39.4866 36.4243 37.1518 40.5861C35.9807 42.6734 34.9451 44.4438 34.2011 45.6932C33.8289 46.318 33.5295 46.8138 33.3224 47.154C33.2188 47.324 33.138 47.4554 33.083 47.5449C33.0555 47.5895 33.034 47.6239 33.0195 47.6474C33.0123 47.659 33.007 47.6684 33.0031 47.6746C33.0013 47.6776 32.9986 47.6818 32.9986 47.6818L32.9968 47.6837L30.8921 46.3797L32.9959 47.6845C32.5443 48.4124 31.7486 48.8552 30.8921 48.8553C30.0891 48.8552 29.3397 48.4662 28.8772 47.8179L28.7883 47.6845L28.7874 47.6837L28.7865 47.6818C28.7865 47.6818 28.7838 47.6776 28.7819 47.6746C28.7781 47.6684 28.7728 47.659 28.7656 47.6474C28.7511 47.6239 28.7297 47.5896 28.7022 47.5449C28.6471 47.4554 28.5662 47.3241 28.4628 47.154C28.2555 46.8138 27.9562 46.318 27.5841 45.6932C26.8399 44.4437 25.8035 42.6737 24.6324 40.5861C22.2975 36.4243 19.3949 30.9457 17.2039 25.7951C16.5095 24.1628 16.0749 22.5573 15.8672 21.0027H20.8882C21.0608 21.928 21.3461 22.8822 21.7605 23.8564C23.8483 28.7641 26.6511 34.0626 28.9515 38.163C29.6611 39.4278 30.3207 40.5731 30.8921 41.5518C31.4636 40.573 32.124 39.4279 32.8336 38.163C35.1341 34.0626 37.9368 28.7641 40.0245 23.8564C40.4389 22.8823 40.7243 21.928 40.8969 21.0027H45.9179ZM30.8921 3.66992C38.147 3.66999 44.4868 8.85527 45.8091 16.0505H40.721C39.4905 11.6144 35.4152 8.62116 30.8921 8.62109C26.369 8.62121 22.2935 11.6143 21.0632 16.0505H15.9751C17.2972 8.85526 23.6372 3.67004 30.8921 3.66992Z" fill="url(#paint2_linear_7536_18697)"/>
<path d="M30.7933 14.2246C29.3936 14.2246 28.0511 14.7477 27.0614 15.6788C26.0716 16.61 25.5156 17.8728 25.5156 19.1896C25.5156 24.1548 30.7933 29.1783 30.7933 29.1783C30.7933 29.1783 36.071 24.1548 36.071 19.1896C36.071 17.8728 35.515 16.61 34.5252 15.6788C33.5355 14.7477 32.193 14.2246 30.7933 14.2246ZM30.7933 22.1687C29.9534 22.1687 29.148 21.8548 28.5541 21.2962C27.9602 20.7375 27.6267 19.9798 27.6267 19.1896C27.6267 18.3996 27.9602 17.6419 28.5541 17.0832C29.148 16.5244 29.9534 16.2106 30.7933 16.2106C31.6331 16.2106 32.4386 16.5244 33.0325 17.0832C33.6263 17.6419 33.9599 18.3996 33.9599 19.1896C33.9599 19.9798 33.6263 20.7375 33.0325 21.2962C32.4386 21.8548 31.6331 22.1687 30.7933 22.1687Z" fill="#424242"/>
<path d="M118.664 35.8197V35.6137L119.181 35.4284C119.457 35.3185 119.671 35.1881 119.822 35.0371C119.974 34.8722 120.098 34.6457 120.194 34.3573L124.456 22.1855H126.215L130.415 34.4397C130.526 34.7418 130.649 34.9752 130.787 35.14C130.926 35.291 131.139 35.4215 131.429 35.5313L131.677 35.6137V35.8197H126.422V35.6137L126.732 35.5107C127.022 35.4009 127.195 35.2498 127.25 35.0576C127.318 34.8516 127.312 34.6114 127.229 34.3367L126.257 31.3711H121.663L120.671 34.275C120.574 34.577 120.54 34.8174 120.567 34.9958C120.608 35.1743 120.774 35.3185 121.063 35.4284L121.518 35.6137V35.8197H118.664ZM121.808 30.9592H126.133L124.043 24.554L121.808 30.9592Z" fill="#E3E3E3" fill-opacity="0.3"/>
<path d="M105.762 35.8197V35.6137L106.196 35.4695C106.472 35.3734 106.651 35.2498 106.734 35.0988C106.818 34.934 106.858 34.7075 106.858 34.4191V23.6477C106.858 23.3731 106.818 23.1603 106.734 23.0093C106.665 22.8445 106.5 22.7141 106.238 22.618L105.762 22.4325V22.2266H111.68C113.306 22.2266 114.554 22.5355 115.424 23.1534C116.293 23.7575 116.727 24.602 116.727 25.6866C116.727 26.2908 116.5 26.8949 116.045 27.4991C115.589 28.1032 114.872 28.57 113.892 28.8996L116.768 34.5839C116.893 34.8174 117.031 35.0096 117.182 35.1606C117.348 35.2979 117.562 35.4215 117.824 35.5312L118.092 35.6342V35.8197H114.389L111.328 29.332H109.921V34.4191C109.921 34.68 109.962 34.8929 110.044 35.0576C110.127 35.2224 110.3 35.3459 110.562 35.4283L111.058 35.6137V35.8197H105.762ZM109.921 28.9202H110.913C111.907 28.9202 112.624 28.6593 113.065 28.1375C113.507 27.602 113.727 26.8125 113.727 25.7691C113.727 24.7118 113.52 23.9292 113.107 23.4212C112.693 22.8994 111.996 22.6385 111.017 22.6385H109.921V28.9202Z" fill="#E3E3E3" fill-opacity="0.3"/>
<path d="M92.0977 35.8197V35.6137L92.6149 35.4284C92.8908 35.3185 93.1046 35.1881 93.2563 35.0371C93.408 34.8722 93.5322 34.6457 93.6286 34.3573L97.8902 22.1855H99.6488L103.849 34.4397C103.959 34.7418 104.084 34.9752 104.221 35.14C104.36 35.291 104.573 35.4215 104.863 35.5313L105.111 35.6137V35.8197H99.8559V35.6137L100.166 35.5107C100.456 35.4009 100.629 35.2498 100.683 35.0576C100.753 34.8516 100.746 34.6114 100.663 34.3367L99.6907 31.3711H95.0975L94.1045 34.275C94.008 34.577 93.9735 34.8174 94.0011 34.9958C94.0424 35.1743 94.208 35.3185 94.4976 35.4284L94.9528 35.6137V35.8197H92.0977ZM95.2424 30.9592H99.5663L97.477 24.554L95.2424 30.9592Z" fill="#E3E3E3" fill-opacity="0.3"/>
<path d="M75.9805 35.8197V35.6137L76.3943 35.4695C76.8633 35.3185 77.0978 34.9271 77.0978 34.2956V23.7506C77.0978 23.4761 77.0632 23.2564 76.9943 23.0916C76.9392 22.9268 76.7805 22.7896 76.5184 22.6797L75.9805 22.4325V22.2266H79.9736L83.8009 32.1948L87.4008 22.2266H91.4765V22.4325L91.1455 22.5561C90.8834 22.6522 90.7041 22.7896 90.6077 22.968C90.5111 23.1328 90.4628 23.3525 90.4628 23.6271V34.3986C90.4628 34.6732 90.4972 34.886 90.5662 35.037C90.6352 35.188 90.8007 35.3185 91.0627 35.4283L91.4765 35.6137V35.8197H86.325V35.6137L86.7595 35.4283C87.0215 35.3185 87.1871 35.188 87.256 35.037C87.325 34.886 87.3594 34.6732 87.3594 34.3986V29.7645L87.4008 23.8742L83.0768 35.8197H82.0424L77.5323 24.0184L77.5943 29.1467V34.3367C77.5943 34.6388 77.6357 34.886 77.7184 35.0782C77.815 35.2567 77.9943 35.3871 78.2563 35.4695L78.7114 35.6137V35.8197H75.9805Z" fill="#E3E3E3" fill-opacity="0.3"/>
<path d="M62.3594 35.8197V35.6137L62.8766 35.4284C63.1525 35.3185 63.3662 35.1881 63.518 35.0371C63.6697 34.8722 63.7938 34.6457 63.8904 34.3573L68.1523 22.1855H69.9109L74.1107 34.4397C74.221 34.7418 74.3452 34.9752 74.4831 35.14C74.6211 35.291 74.8348 35.4215 75.1244 35.5313L75.3727 35.6137V35.8197H70.1178V35.6137L70.4281 35.5107C70.7177 35.4009 70.8902 35.2498 70.9453 35.0576C71.0143 34.8516 71.0073 34.6114 70.9246 34.3367L69.9522 31.3711H65.3593L64.3662 34.275C64.2697 34.577 64.2352 34.8174 64.2628 34.9958C64.3042 35.1743 64.4696 35.3185 64.7594 35.4284L65.2144 35.6137V35.8197H62.3594ZM65.5041 30.9592H69.8281L67.7385 24.554L65.5041 30.9592Z" fill="#E3E3E3"/>
<path d="M48.3398 35.8197V35.6137L48.7536 35.4489C49.0295 35.3528 49.2088 35.2224 49.2915 35.0576C49.388 34.8929 49.4363 34.68 49.4363 34.4191V23.6477C49.4363 23.3731 49.388 23.1534 49.2915 22.9887C49.2088 22.8239 49.0295 22.6935 48.7536 22.5974L48.3398 22.4325V22.2266H53.5948V22.4325L53.2431 22.5767C52.981 22.6729 52.8017 22.8033 52.7052 22.968C52.6087 23.1191 52.5604 23.332 52.5604 23.6065V28.6113H57.505V23.6065C57.505 23.332 57.4567 23.1191 57.3602 22.968C57.2774 22.8033 57.0981 22.6729 56.8222 22.5767L56.4499 22.4325V22.2266H61.7256V22.4325L61.3118 22.5974C61.0498 22.6935 60.8705 22.8239 60.7739 22.9887C60.6773 23.1534 60.629 23.3731 60.629 23.6477V34.4191C60.629 34.68 60.6773 34.8929 60.7739 35.0576C60.8705 35.2224 61.0498 35.3528 61.3118 35.4489L61.7256 35.6137V35.8197H56.4499V35.6137L56.8222 35.4901C57.0981 35.3803 57.2774 35.2498 57.3602 35.0988C57.4567 34.934 57.505 34.7144 57.505 34.4397V29.0232H52.5604V34.4397C52.5604 34.9477 52.788 35.2979 53.2431 35.4901L53.5948 35.6137V35.8197H48.3398Z" fill="#E3E3E3" fill-opacity="0.3"/>
<path d="M119.594 34.9552V34.7484L120.111 34.5622C120.387 34.4519 120.6 34.3208 120.752 34.1692C120.904 34.0036 121.028 33.7761 121.124 33.4865L125.385 21.2617H127.144L131.343 33.5693C131.454 33.8727 131.577 34.1071 131.715 34.2726C131.853 34.4243 132.066 34.5553 132.356 34.6656L132.605 34.7484V34.9552H127.35V34.7484L127.661 34.6449C127.95 34.5346 128.123 34.3829 128.178 34.1898C128.247 33.983 128.24 33.7417 128.157 33.4659L127.185 30.4872H122.593L121.6 33.4038C121.504 33.7072 121.47 33.9485 121.496 34.1278C121.538 34.3071 121.704 34.4519 121.993 34.5622L122.448 34.7484V34.9552H119.594ZM122.738 30.0736H127.061L124.972 23.6404L122.738 30.0736Z" fill="url(#paint3_linear_7536_18697)"/>
<path d="M106.691 34.9549V34.7481L107.125 34.6032C107.401 34.5067 107.58 34.3826 107.663 34.2309C107.745 34.0654 107.787 33.8379 107.787 33.5483V22.73C107.787 22.4542 107.745 22.2405 107.663 22.0888C107.594 21.9233 107.428 21.7923 107.166 21.6958L106.691 21.5096V21.3027H112.606C114.233 21.3027 115.481 21.6131 116.35 22.2335C117.22 22.8403 117.653 23.6884 117.653 24.7778C117.653 25.3846 117.426 25.9914 116.971 26.5981C116.516 27.2049 115.799 27.6737 114.82 28.0047L117.695 33.7138C117.819 33.9482 117.957 34.1412 118.108 34.293C118.274 34.4309 118.488 34.555 118.75 34.6653L119.019 34.7687V34.9549H115.316L112.254 28.4391H110.848V33.5483C110.848 33.8103 110.889 34.0241 110.972 34.1895C111.055 34.355 111.227 34.4792 111.489 34.5619L111.986 34.7481V34.9549H106.691ZM110.848 28.0254H111.841C112.834 28.0254 113.551 27.7634 113.992 27.2394C114.434 26.7015 114.654 25.9086 114.654 24.8605C114.654 23.7987 114.448 23.0127 114.034 22.5024C113.62 21.9784 112.924 21.7164 111.944 21.7164H110.848V28.0254Z" fill="url(#paint4_linear_7536_18697)"/>
<path d="M93.0273 34.9552V34.7484L93.5444 34.5622C93.8202 34.4519 94.034 34.3208 94.1857 34.1692C94.3373 34.0036 94.4615 33.7761 94.5579 33.4865L98.8192 21.2617H100.577L104.776 33.5693C104.887 33.8727 105.011 34.1071 105.148 34.2726C105.287 34.4243 105.5 34.5553 105.79 34.6656L106.038 34.7484V34.9552H100.784V34.7484L101.094 34.6449C101.384 34.5346 101.557 34.3829 101.611 34.1898C101.68 33.983 101.674 33.7417 101.591 33.4659L100.619 30.4872H96.0269L95.0337 33.4038C94.9372 33.7072 94.9027 33.9485 94.9303 34.1278C94.9717 34.3071 95.1372 34.4519 95.4267 34.5622L95.8821 34.7484V34.9552H93.0273ZM96.1718 30.0736H100.494L98.405 23.6404L96.1718 30.0736Z" fill="url(#paint5_linear_7536_18697)"/>
<path d="M76.9141 34.9549V34.7481L77.3278 34.6032C77.7967 34.4516 78.0311 34.0585 78.0311 33.4242V22.8335C78.0311 22.5576 77.9966 22.337 77.9277 22.1715C77.8726 22.006 77.714 21.8681 77.4519 21.7578L76.9141 21.5096V21.3027H80.9063L84.7331 31.3143L88.3323 21.3027H92.4072V21.5096L92.0763 21.6337C91.8142 21.7302 91.635 21.8681 91.5385 22.0474C91.442 22.2129 91.3937 22.4335 91.3937 22.7093V33.5276C91.3937 33.8034 91.4281 34.0172 91.4971 34.1688C91.566 34.3206 91.7315 34.4516 91.9936 34.5619L92.4072 34.7481V34.9549H87.2566V34.7481L87.691 34.5619C87.9531 34.4516 88.1185 34.3206 88.1875 34.1688C88.2564 34.0172 88.291 33.8034 88.291 33.5276V28.8735L88.3323 22.9575L84.0091 34.9549H82.9749L78.4655 23.1023L78.5276 28.2529V33.4655C78.5276 33.769 78.5689 34.0172 78.6517 34.2102C78.7482 34.3895 78.9274 34.5205 79.1895 34.6032L79.6446 34.7481V34.9549H76.9141Z" fill="url(#paint6_linear_7536_18697)"/>
<path d="M63.293 34.9552V34.7484L63.8101 34.5622C64.0859 34.4519 64.2997 34.3208 64.4513 34.1692C64.603 34.0036 64.7272 33.7761 64.8237 33.4865L69.0848 21.2617H70.843L75.0421 33.5693C75.1525 33.8727 75.2765 34.1071 75.4144 34.2726C75.5524 34.4243 75.7661 34.5553 76.0557 34.6656L76.3039 34.7484V34.9552H71.0499V34.7484L71.3602 34.6449C71.6498 34.5346 71.8221 34.3829 71.8773 34.1898C71.9463 33.983 71.9393 33.7417 71.8566 33.4659L70.8844 30.4872H66.2923L65.2995 33.4038C65.2029 33.7072 65.1685 33.9485 65.196 34.1278C65.2374 34.3071 65.4028 34.4519 65.6924 34.5622L66.1475 34.7484V34.9552H63.293ZM66.4372 30.0736H70.7603L68.6711 23.6404L66.4372 30.0736Z" fill="url(#paint7_linear_7536_18697)"/>
<path d="M49.2812 34.9549V34.7481L49.695 34.5826C49.9708 34.486 50.15 34.355 50.2327 34.1895C50.3292 34.0241 50.3775 33.8103 50.3775 33.5483V22.73C50.3775 22.4542 50.3292 22.2335 50.2327 22.0681C50.15 21.9026 49.9708 21.7716 49.695 21.6751L49.2812 21.5096V21.3027H54.5351V21.5096L54.1835 21.6544C53.9215 21.7509 53.7422 21.8819 53.6457 22.0474C53.5492 22.1991 53.5009 22.4128 53.5009 22.6886V27.7151H58.4446V22.6886C58.4446 22.4128 58.3963 22.1991 58.2999 22.0474C58.2171 21.8819 58.0379 21.7509 57.7621 21.6544L57.3897 21.5096V21.3027H62.6644V21.5096L62.2507 21.6751C61.9887 21.7716 61.8094 21.9026 61.7129 22.0681C61.6163 22.2335 61.5681 22.4542 61.5681 22.73V33.5483C61.5681 33.8103 61.6163 34.0241 61.7129 34.1895C61.8094 34.355 61.9887 34.486 62.2507 34.5826L62.6644 34.7481V34.9549H57.3897V34.7481L57.7621 34.6239C58.0379 34.5136 58.2171 34.3826 58.2999 34.2309C58.3963 34.0654 58.4446 33.8448 58.4446 33.569V28.1288H53.5009V33.569C53.5009 34.0792 53.7284 34.4309 54.1835 34.6239L54.5351 34.7481V34.9549H49.2812Z" fill="url(#paint8_linear_7536_18697)"/>
<path d="M118.488 52.5582V52.2618L118.972 52.0742C119.211 51.9769 119.372 51.8518 119.456 51.6989C119.554 51.5321 119.604 51.3096 119.604 51.0316V40.1475C119.604 39.8695 119.561 39.6541 119.477 39.5011C119.407 39.3343 119.239 39.2022 118.972 39.1049L118.488 38.9174V38.6758L128.481 38.7965L128.607 41.8869H128.481L127.576 39.9269C127.45 39.6767 127.316 39.4751 127.176 39.3222C127.036 39.1694 126.826 39.0928 126.546 39.0928H122.759V45.1188H125.01C125.29 45.1188 125.5 45.0493 125.64 44.9103C125.795 44.7573 125.928 44.5558 126.04 44.3056L126.461 43.4715H126.671V47.2247H126.461L126.04 46.349C125.914 46.0987 125.78 45.9042 125.64 45.7652C125.5 45.6123 125.29 45.5358 125.01 45.5358H122.759V52.0204H127.008C127.288 52.0204 127.506 51.9509 127.66 51.8119C127.814 51.659 127.94 51.4505 128.039 51.1864L128.901 49.2264H129.054L128.901 52.5582H118.488Z" fill="#FFBD91" fill-opacity="0.26"/>
<path d="M107.324 52.9203C106.259 52.9203 105.314 52.7312 104.488 52.353C103.675 51.9748 103.038 51.3796 102.576 50.5672C102.127 49.7409 101.903 48.6554 101.903 47.3107V40.0625C101.903 39.5303 101.63 39.1801 101.084 39.0121L100.621 38.886V38.6758H106.441V38.886L105.832 39.054C105.314 39.1801 105.055 39.5303 105.055 40.1045V47.857C105.055 49.1596 105.328 50.126 105.874 50.7563C106.421 51.3726 107.205 51.6808 108.228 51.6808C109.292 51.6808 110.132 51.3516 110.749 50.6933C111.38 50.035 111.694 49.1036 111.694 47.899V40.1886C111.694 39.9084 111.645 39.6633 111.548 39.4532C111.463 39.2292 111.281 39.0821 111.001 39.0121L110.476 38.886V38.6758H113.418V38.886L112.85 39.0331C112.584 39.089 112.408 39.2221 112.325 39.4322C112.24 39.6423 112.199 39.8874 112.199 40.1676V47.857C112.199 48.8794 111.995 49.7759 111.589 50.5462C111.183 51.3025 110.616 51.8908 109.887 52.311C109.159 52.7172 108.305 52.9203 107.324 52.9203Z" fill="#FFBD91" fill-opacity="0.26"/>
<path d="M83.1573 52.5594V52.2089L83.8432 52.0011C84.0925 51.9318 84.2727 51.8002 84.3835 51.6062C84.4944 51.3984 84.5498 51.1558 84.5498 50.8788V40.8816C84.3974 40.549 84.2727 40.2996 84.1757 40.1333C84.0925 39.9671 83.9956 39.8286 83.8847 39.7177C83.7738 39.593 83.6215 39.4406 83.4275 39.2605L83.0742 38.9071V38.6992H86.753L93.6533 48.1145V40.2788C93.6533 40.0017 93.6047 39.7523 93.5078 39.5306C93.4247 39.3089 93.2445 39.1634 92.9673 39.0942L92.2815 38.9071V38.6992H95.2537V38.9071L94.6925 39.0942C94.443 39.1773 94.2907 39.3228 94.2352 39.5306C94.1798 39.7385 94.1521 39.9809 94.1521 40.258V52.5594H92.9881L85.0487 41.5675V50.8788C85.0487 51.1558 85.0902 51.3914 85.1734 51.5854C85.2565 51.7794 85.4297 51.9179 85.6929 52.0011L86.3165 52.2089V52.5594H83.1573Z" fill="#FFBD91" fill-opacity="0.26"/>
<path d="M66.7852 52.537V52.2089L67.2632 52.0219C67.4988 51.9249 67.6582 51.8002 67.7413 51.6478C67.8383 51.4815 67.8868 51.2598 67.8868 50.9827V40.1333C67.8868 39.8562 67.8452 39.6415 67.7621 39.4891C67.6928 39.3228 67.5265 39.1912 67.2632 39.0942L66.7852 38.9071V38.6992H76.7408L76.8655 41.9H76.6577L75.7639 39.9463C75.6392 39.6969 75.5075 39.496 75.3689 39.3436C75.2304 39.1912 75.0227 39.115 74.7456 39.115H71.0044V45.1215H73.2283C73.5054 45.1215 73.7133 45.0522 73.8518 44.9137C74.0042 44.7613 74.1359 44.5604 74.2467 44.311L74.6624 43.4796H74.8703V47.2207H74.6624L74.2467 46.3478C74.122 46.0984 73.9904 45.9044 73.8518 45.7658C73.7133 45.6135 73.5054 45.5372 73.2283 45.5372H71.0044V52.0011H75.2028C75.4799 52.0011 75.6947 51.9318 75.8471 51.7932C75.9995 51.6408 76.1242 51.433 76.2212 51.1698L77.0732 49.2161H77.2812L77.1565 52.537H66.7852Z" fill="#FFBD91" fill-opacity="0.26"/>
<path d="M54.543 52.5594L50.081 40.0918C49.984 39.8146 49.8523 39.6 49.686 39.4475C49.5337 39.2813 49.3189 39.1566 49.0418 39.0734L48.543 38.9071V38.6992H54.5287V38.9071L53.8845 39.0942C53.5658 39.1773 53.3856 39.3228 53.344 39.5306C53.3164 39.7385 53.351 39.9948 53.448 40.2996L56.524 49.4239L59.6209 40.2788C59.7317 39.9601 59.7803 39.6969 59.7663 39.4891C59.7663 39.2813 59.607 39.1358 59.2883 39.0526L58.748 38.9071V38.6992H61.6577V38.9071L61.0965 39.0734C60.8333 39.1426 60.6462 39.2673 60.5354 39.4475C60.4245 39.6138 60.3206 39.8354 60.2236 40.1126L56.081 52.5594H54.543Z" fill="#FFBD91" fill-opacity="0.26"/>
<path d="M119.332 51.6262V51.4194L119.808 51.2333C120.042 51.1368 120.201 51.0126 120.284 50.8609C120.38 50.6954 120.429 50.4748 120.429 50.199V39.4018C120.429 39.126 120.387 38.9122 120.304 38.7606C120.236 38.5951 120.07 38.4641 119.808 38.3675L119.332 38.1814V37.9746H129.24L129.364 41.1599H129.157L128.268 39.2156C128.144 38.9674 128.013 38.7675 127.875 38.6157C127.737 38.4641 127.53 38.3882 127.255 38.3882H123.531V44.366H125.745C126.021 44.366 126.228 44.2971 126.365 44.1592C126.516 44.0075 126.648 43.8076 126.758 43.5594L127.172 42.732H127.379V46.4552H127.172L126.758 45.5864C126.634 45.3382 126.503 45.1452 126.365 45.0073C126.228 44.8555 126.021 44.7797 125.745 44.7797H123.531V51.2125H127.71C127.985 51.2125 128.199 51.1436 128.351 51.0058C128.503 50.854 128.627 50.6472 128.723 50.3852L129.571 48.4409H129.778L129.654 51.6262H119.332Z" fill="#424242"/>
<path d="M108.251 51.9986C107.203 51.9986 106.272 51.8124 105.459 51.4401C104.659 51.0678 104.031 50.4818 103.576 49.6819C103.135 48.8684 102.914 47.7997 102.914 46.4758V39.3397C102.914 38.8157 102.645 38.471 102.107 38.3055L101.652 38.1814V37.9746H107.383V38.1814L106.783 38.3469C106.272 38.471 106.017 38.8157 106.017 39.3811V47.0136C106.017 48.2961 106.286 49.2476 106.824 49.8681C107.361 50.4748 108.134 50.7782 109.14 50.7782C110.189 50.7782 111.016 50.4542 111.622 49.806C112.243 49.1579 112.553 48.2409 112.553 47.0551V39.4638C112.553 39.188 112.505 38.9467 112.409 38.7399C112.325 38.5193 112.146 38.3745 111.87 38.3055L111.353 38.1814V37.9746H114.249V38.1814L113.691 38.3262C113.429 38.3814 113.257 38.5124 113.174 38.7192C113.091 38.9261 113.05 39.1674 113.05 39.4432V47.0136C113.05 48.0203 112.85 48.9028 112.45 49.6613C112.05 50.4059 111.492 50.985 110.775 51.3987C110.058 51.7987 109.217 51.9986 108.251 51.9986Z" fill="#424242"/>
<path d="M84.1022 51.6262V51.4194L84.7848 51.2125C85.033 51.1436 85.2123 51.0126 85.3226 50.8196C85.4329 50.6127 85.4881 50.3714 85.4881 50.0956V40.1464C85.3364 39.8154 85.2123 39.5672 85.1157 39.4018C85.033 39.2363 84.9365 39.0984 84.8262 38.9881C84.7159 38.8639 84.5642 38.7123 84.3711 38.533L84.0195 38.1814V37.9746H87.6807L94.5479 47.3446V39.5465C94.5479 39.2707 94.4996 39.0225 94.403 38.8019C94.3203 38.5813 94.1411 38.4365 93.8653 38.3675L93.1827 38.1814V37.9746H96.1402V38.1814L95.5821 38.3675C95.3338 38.4503 95.1822 38.5951 95.127 38.8019C95.0719 39.0088 95.0443 39.2501 95.0443 39.5259V51.6883H93.886L85.9845 40.829V50.0956C85.9845 50.3714 86.0259 50.6058 86.1087 50.7989C86.1914 50.9919 86.3638 51.1298 86.6257 51.2125L87.2463 51.4194V51.6262H84.1022Z" fill="#424242"/>
<path d="M67.8086 51.6262V51.4194L68.2844 51.2333C68.5188 51.1368 68.6774 51.0126 68.7602 50.8609C68.8566 50.6954 68.9049 50.4748 68.9049 50.199V39.4018C68.9049 39.126 68.8636 38.9122 68.7809 38.7606C68.7119 38.5951 68.5464 38.4641 68.2844 38.3675L67.8086 38.1814V37.9746H77.7165L77.8406 41.1599H77.6338L76.7443 39.2156C76.6202 38.9674 76.4892 38.7675 76.3513 38.6157C76.2134 38.4641 76.0065 38.3882 75.7307 38.3882H72.0076V44.366H74.2208C74.4966 44.366 74.7035 44.2971 74.8414 44.1592C74.9931 44.0075 75.124 43.8076 75.2343 43.5594L75.648 42.732H75.8549V46.4552H75.648L75.2343 45.5864C75.1103 45.3382 74.9793 45.1452 74.8414 45.0073C74.7035 44.8555 74.4966 44.7797 74.2208 44.7797H72.0076V51.2125H76.1858C76.4616 51.2125 76.6754 51.1436 76.827 51.0058C76.9787 50.854 77.1029 50.6472 77.1994 50.3852L78.0474 48.4409H78.2543L78.1302 51.6262H67.8086Z" fill="#424242"/>
<path d="M55.6055 51.6883L51.1791 39.3604C51.0825 39.0846 50.9516 38.8708 50.7861 38.7192C50.6344 38.5537 50.4206 38.4296 50.1449 38.3468L49.6484 38.1814V37.9746H55.6055V38.1814L54.9643 38.3675C54.6472 38.4503 54.4679 38.595 54.4265 38.8019C54.3989 39.0087 54.4335 39.2639 54.5299 39.5673L57.5913 48.6477L60.6733 39.5465C60.7836 39.2293 60.8318 38.9674 60.818 38.7605C60.818 38.5537 60.6594 38.4089 60.3422 38.3261L59.8045 38.1814V37.9746H62.7003V38.1814L62.1418 38.3468C61.8799 38.4158 61.6937 38.5399 61.5834 38.7192C61.4731 38.8847 61.3696 39.1053 61.273 39.3811L57.1362 51.6883H55.6055Z" fill="#424242"/>
</g>
</g>
</g>
<defs>
<linearGradient id="paint0_linear_7536_18697" x1="21.0444" y1="41.1747" x2="36.4253" y2="41.8047" gradientUnits="userSpaceOnUse">
<stop stop-color="#FFD336"/>
<stop offset="1" stop-color="#F7941E"/>
</linearGradient>
<linearGradient id="paint1_linear_7536_18697" x1="-6.88717" y1="15.293" x2="28.596" y2="16.104" gradientUnits="userSpaceOnUse">
<stop stop-color="#FFD336"/>
<stop offset="1" stop-color="#F7941E"/>
</linearGradient>
<linearGradient id="paint2_linear_7536_18697" x1="2.0656" y1="-3.39029" x2="47.1887" y2="-2.26861" gradientUnits="userSpaceOnUse">
<stop stop-color="#FFD336"/>
<stop offset="1" stop-color="#F7941E"/>
</linearGradient>
<linearGradient id="paint3_linear_7536_18697" x1="113.618" y1="19.1221" x2="133.143" y2="19.8155" gradientUnits="userSpaceOnUse">
<stop stop-color="#FFD336"/>
<stop offset="1" stop-color="#F7941E"/>
</linearGradient>
<linearGradient id="paint4_linear_7536_18697" x1="101.028" y1="19.1696" x2="119.531" y2="19.7941" gradientUnits="userSpaceOnUse">
<stop stop-color="#FFD336"/>
<stop offset="1" stop-color="#F7941E"/>
</linearGradient>
<linearGradient id="paint5_linear_7536_18697" x1="87.0518" y1="19.1221" x2="106.576" y2="19.8154" gradientUnits="userSpaceOnUse">
<stop stop-color="#FFD336"/>
<stop offset="1" stop-color="#F7941E"/>
</linearGradient>
<linearGradient id="paint6_linear_7536_18697" x1="69.7985" y1="19.1696" x2="93.035" y2="20.1552" gradientUnits="userSpaceOnUse">
<stop stop-color="#FFD336"/>
<stop offset="1" stop-color="#F7941E"/>
</linearGradient>
<linearGradient id="paint7_linear_7536_18697" x1="57.3174" y1="19.1221" x2="76.8416" y2="19.8155" gradientUnits="userSpaceOnUse">
<stop stop-color="#FFD336"/>
<stop offset="1" stop-color="#F7941E"/>
</linearGradient>
<linearGradient id="paint8_linear_7536_18697" x1="43.1347" y1="19.1696" x2="63.2159" y2="19.9054" gradientUnits="userSpaceOnUse">
<stop stop-color="#FFD336"/>
<stop offset="1" stop-color="#F7941E"/>
</linearGradient>
</defs>
</svg>
